<svg xmlns="http://www.w3.org/2000/svg" width="1506" height="827" viewBox="0 0 1506 827" fill="none">
<g clip-path="url(#clip0_47_599)">
<rect width="1506" height="827" fill="#1E1E1E"/>
<path d="M-96.0391 -72.7023C-96.0391 -72.7023 32.0734 130.878 641.726 377.756C1251.38 624.634 1530.11 952.018 1530.11 952.018" stroke="url(#paint0_linear_47_599)" stroke-width="11" stroke-linecap="round"/>
<path d="M-50.0498 -149.849C-50.0498 -149.849 40.7545 288.133 742.078 457.487C1443.4 626.841 1504.89 1007.12 1504.89 1007.12" stroke="url(#paint1_linear_47_599)" stroke-width="6" stroke-linecap="round"/>
<path d="M669.15 133.55C669.15 130.15 669.917 127.1 671.45 124.4C672.983 121.667 675.067 119.533 677.7 118C680.367 116.467 683.317 115.7 686.55 115.7C690.35 115.7 693.667 116.617 696.5 118.45C699.333 120.283 701.4 122.883 702.7 126.25H697.25C696.283 124.15 694.883 122.533 693.05 121.4C691.25 120.267 689.083 119.7 686.55 119.7C684.117 119.7 681.933 120.267 680 121.4C678.067 122.533 676.55 124.15 675.45 126.25C674.35 128.317 673.8 130.75 673.8 133.55C673.8 136.317 674.35 138.75 675.45 140.85C676.55 142.917 678.067 144.517 680 145.65C681.933 146.783 684.117 147.35 686.55 147.35C689.083 147.35 691.25 146.8 693.05 145.7C694.883 144.567 696.283 142.95 697.25 140.85H702.7C701.4 144.183 699.333 146.767 696.5 148.6C693.667 150.4 690.35 151.3 686.55 151.3C683.317 151.3 680.367 150.55 677.7 149.05C675.067 147.517 672.983 145.4 671.45 142.7C669.917 140 669.15 136.95 669.15 133.55ZM714.023 128.05C714.823 126.483 715.956 125.267 717.423 124.4C718.923 123.533 720.74 123.1 722.873 123.1V127.8H721.673C716.573 127.8 714.023 130.567 714.023 136.1V151H709.473V123.6H714.023V128.05ZM753.125 136.25C753.125 137.117 753.075 138.033 752.975 139H731.075C731.242 141.7 732.159 143.817 733.825 145.35C735.525 146.85 737.575 147.6 739.975 147.6C741.942 147.6 743.575 147.15 744.875 146.25C746.209 145.317 747.142 144.083 747.675 142.55H752.575C751.842 145.183 750.375 147.333 748.175 149C745.975 150.633 743.242 151.45 739.975 151.45C737.375 151.45 735.042 150.867 732.975 149.7C730.942 148.533 729.342 146.883 728.175 144.75C727.009 142.583 726.425 140.083 726.425 137.25C726.425 134.417 726.992 131.933 728.125 129.8C729.259 127.667 730.842 126.033 732.875 124.9C734.942 123.733 737.309 123.15 739.975 123.15C742.575 123.15 744.875 123.717 746.875 124.85C748.875 125.983 750.409 127.55 751.475 129.55C752.575 131.517 753.125 133.75 753.125 136.25ZM748.425 135.3C748.425 133.567 748.042 132.083 747.275 130.85C746.509 129.583 745.459 128.633 744.125 128C742.825 127.333 741.375 127 739.775 127C737.475 127 735.509 127.733 733.875 129.2C732.275 130.667 731.359 132.7 731.125 135.3H748.425ZM757.431 137.2C757.431 134.4 757.998 131.95 759.131 129.85C760.265 127.717 761.815 126.067 763.781 124.9C765.781 123.733 767.998 123.15 770.431 123.15C772.831 123.15 774.915 123.667 776.681 124.7C778.448 125.733 779.765 127.033 780.631 128.6V123.6H785.231V151H780.631V145.9C779.731 147.5 778.381 148.833 776.581 149.9C774.815 150.933 772.748 151.45 770.381 151.45C767.948 151.45 765.748 150.85 763.781 149.65C761.815 148.45 760.265 146.767 759.131 144.6C757.998 142.433 757.431 139.967 757.431 137.2ZM780.631 137.25C780.631 135.183 780.215 133.383 779.381 131.85C778.548 130.317 777.415 129.15 775.981 128.35C774.581 127.517 773.031 127.1 771.331 127.1C769.631 127.1 768.081 127.5 766.681 128.3C765.281 129.1 764.165 130.267 763.331 131.8C762.498 133.333 762.081 135.133 762.081 137.2C762.081 139.3 762.498 141.133 763.331 142.7C764.165 144.233 765.281 145.417 766.681 146.25C768.081 147.05 769.631 147.45 771.331 147.45C773.031 147.45 774.581 147.05 775.981 146.25C777.415 145.417 778.548 144.233 779.381 142.7C780.215 141.133 780.631 139.317 780.631 137.25ZM798.47 127.35V143.5C798.47 144.833 798.754 145.783 799.32 146.35C799.887 146.883 800.87 147.15 802.27 147.15H805.62V151H801.52C798.987 151 797.087 150.417 795.82 149.25C794.554 148.083 793.92 146.167 793.92 143.5V127.35H790.37V123.6H793.92V116.7H798.47V123.6H805.62V127.35H798.47ZM836.133 136.25C836.133 137.117 836.083 138.033 835.983 139H814.083C814.25 141.7 815.167 143.817 816.833 145.35C818.533 146.85 820.583 147.6 822.983 147.6C824.95 147.6 826.583 147.15 827.883 146.25C829.217 145.317 830.15 144.083 830.683 142.55H835.583C834.85 145.183 833.383 147.333 831.183 149C828.983 150.633 826.25 151.45 822.983 151.45C820.383 151.45 818.05 150.867 815.983 149.7C813.95 148.533 812.35 146.883 811.183 144.75C810.017 142.583 809.433 140.083 809.433 137.25C809.433 134.417 810 131.933 811.133 129.8C812.267 127.667 813.85 126.033 815.883 124.9C817.95 123.733 820.317 123.15 822.983 123.15C825.583 123.15 827.883 123.717 829.883 124.85C831.883 125.983 833.417 127.55 834.483 129.55C835.583 131.517 836.133 133.75 836.133 136.25ZM831.433 135.3C831.433 133.567 831.05 132.083 830.283 130.85C829.517 129.583 828.467 128.633 827.133 128C825.833 127.333 824.383 127 822.783 127C820.483 127 818.517 127.733 816.883 129.2C815.283 130.667 814.367 132.7 814.133 135.3H831.433Z" fill="#B9B2E9"/>
<g filter="url(#filter0_f_47_599)">
<g filter="url(#filter1_f_47_599)">
<path d="M1069 432.046C1069 495.586 1043.85 556.556 999.026 601.694C954.2 646.833 893.321 672.488 829.632 673.081C765.944 673.673 704.596 649.155 658.934 604.858C613.271 560.562 586.988 500.07 585.8 436.541C584.612 373.013 608.616 311.585 652.59 265.621C696.565 219.656 756.953 192.872 820.62 191.094C884.286 189.317 946.082 212.69 992.564 256.129C1039.05 299.568 1066.46 359.56 1068.83 423.056L827.379 432.046H1069Z" fill="#5EFBE8" fill-opacity="0.5"/>
</g>
</g>
<path d="M442.5 306C442.5 276.729 466.229 253 495.5 253H1022.5C1051.77 253 1075.5 276.729 1075.5 306V568C1075.5 597.271 1051.77 621 1022.5 621H759H495.5C466.229 621 442.5 597.271 442.5 568V306Z" fill="#211F1F"/>
<g filter="url(#filter2_d_47_599)">
<rect x="-132" width="1638" height="53" fill="#8D7BFF"/>
</g>
</g>
<defs>
<filter id="filter0_f_47_599" x="-541" y="-309" width="2110" height="2196" filterUnits="userSpaceOnUse" color-interpolation-filters="sRGB">
<feFlood flood-opacity="0" result="BackgroundImageFix"/>
<feBlend mode="normal" in="SourceGraphic" in2="BackgroundImageFix" result="shape"/>
<feGaussianBlur stdDeviation="250" result="effect1_foregroundBlur_47_599"/>
</filter>
<filter id="filter1_f_47_599" x="85.7578" y="-309" width="1483.24" height="1482.09" filterUnits="userSpaceOnUse" color-interpolation-filters="sRGB">
<feFlood flood-opacity="0" result="BackgroundImageFix"/>
<feBlend mode="normal" in="SourceGraphic" in2="BackgroundImageFix" result="shape"/>
<feGaussianBlur stdDeviation="250" result="effect1_foregroundBlur_47_599"/>
</filter>
<filter id="filter2_d_47_599" x="-136" y="0" width="1646" height="61" filterUnits="userSpaceOnUse" color-interpolation-filters="sRGB">
<feFlood flood-opacity="0" result="BackgroundImageFix"/>
<feColorMatrix in="SourceAlpha" type="matrix" values="0 0 0 0 0 0 0 0 0 0 0 0 0 0 0 0 0 0 127 0" result="hardAlpha"/>
<feOffset dy="4"/>
<feGaussianBlur stdDeviation="2"/>
<feComposite in2="hardAlpha" operator="out"/>
<feColorMatrix type="matrix" values="0 0 0 0 0 0 0 0 0 0 0 0 0 0 0 0 0 0 0.25 0"/>
<feBlend mode="normal" in2="BackgroundImageFix" result="effect1_dropShadow_47_599"/>
<feBlend mode="normal" in="SourceGraphic" in2="effect1_dropShadow_47_599" result="shape"/>
</filter>
<linearGradient id="paint0_linear_47_599" x1="72.98" y1="89.8298" x2="1572.83" y2="869.884" gradientUnits="userSpaceOnUse">
<stop stop-color="#78B5AF"/>
<stop offset="1" stop-color="#9B54BC"/>
<stop offset="1" stop-color="#DB5170"/>
</linearGradient>
<linearGradient id="paint1_linear_47_599" x1="129.699" y1="-10.5498" x2="1443.31" y2="1081.21" gradientUnits="userSpaceOnUse">
<stop stop-color="#78B5AF"/>
<stop offset="1" stop-color="#9B54BC"/>
<stop offset="1" stop-color="#DB5170"/>
</linearGradient>
<clipPath id="clip0_47_599">
<rect width="1506" height="827" fill="white"/>
</clipPath>
</defs>
</svg>