<svg width="180" height="180" viewBox="0 0 180 180" fill="none" xmlns="http://www.w3.org/2000/svg">
<path d="M110.351 41.3785C87.4991 41.3785 41.7237 22.8533 41.7237 0H41.3854C41.3854 18.2907 48.6511 35.8322 61.5844 48.7659C74.5175 61.6996 92.0587 68.9661 110.35 68.9667C121.324 68.9667 131.849 73.3263 139.61 81.0865C147.37 88.8465 151.73 99.3717 151.73 110.346C151.732 121.32 147.374 131.847 139.616 139.609C131.857 147.371 121.332 151.732 110.358 151.735C99.3829 151.737 88.8569 147.379 81.0951 139.62C73.3333 131.861 68.9715 121.337 68.9693 110.362C68.9691 101.305 67.185 92.3371 63.7188 83.97C60.2526 75.6026 55.1723 67.9997 48.7679 61.5957C42.3635 55.1917 34.7605 50.1119 26.3928 46.6462C18.0253 43.1807 9.0569 41.3971 0 41.3974V41.7331C22.849 41.7331 41.3742 87.4887 41.3828 110.345H41.3785C41.3784 123.986 45.4229 137.32 53.0008 148.661C60.5788 160.003 71.3497 168.843 83.9516 174.063C96.5536 179.284 110.42 180.65 123.799 177.989C137.177 175.328 149.466 168.76 159.112 159.116C168.757 149.471 175.326 137.183 177.988 123.804C180.65 110.426 179.284 96.5596 174.065 83.9571C168.846 71.3548 160.007 60.5831 148.667 53.0042C137.325 45.4253 123.991 41.3795 110.351 41.3785Z" fill="url(#paint0_linear_3_29)"/>
<defs>
<linearGradient id="paint0_linear_3_29" x1="142.913" y1="155.106" x2="38.7318" y2="12.014" gradientUnits="userSpaceOnUse">
<stop offset="0.295" stop-color="#E73959"/>
<stop offset="0.384" stop-color="#E73D58"/>
<stop offset="0.477" stop-color="#E74955"/>
<stop offset="0.571" stop-color="#E95E51"/>
<stop offset="0.666" stop-color="#EA7B4B"/>
<stop offset="0.761" stop-color="#EDA044"/>
<stop offset="0.857" stop-color="#EFCE3B"/>
<stop offset="0.868" stop-color="#F0D43A"/>
</linearGradient>
</defs>
</svg>
